<svg id="Calque_1" data-name="Calque 1" xmlns="http://www.w3.org/2000/svg" xmlns:xlink="http://www.w3.org/1999/xlink" viewBox="0 0 841.89 249.45"><defs><style>.cls-1{fill:none;}.cls-2{fill:#28b08e;}.cls-3{fill:url(#Dégradé_sans_nom_34);}.cls-4{fill:url(#Dégradé_sans_nom_34-2);}.cls-5{fill:url(#Dégradé_sans_nom_34-3);}</style><linearGradient id="Dégradé_sans_nom_34" x1="-57.96" y1="-1092.45" x2="98.62" y2="-935.86" gradientTransform="translate(357.06 1129.1) rotate(-15)" gradientUnits="userSpaceOnUse"><stop offset="0" stop-color="#e8e100"/><stop offset="0.5" stop-color="#28b08e"/><stop offset="1" stop-color="#006e61"/></linearGradient><linearGradient id="Dégradé_sans_nom_34-2" x1="-36.47" y1="-1113.94" x2="120.12" y2="-957.36" xlink:href="#Dégradé_sans_nom_34"/><linearGradient id="Dégradé_sans_nom_34-3" x1="-47.21" y1="-1103.19" x2="109.37" y2="-946.61" xlink:href="#Dégradé_sans_nom_34"/></defs><title>Logo-EE-couleur</title><rect class="cls-1" width="841.89" height="249.45"/><path class="cls-2" d="M274.38,93.52c0,1.12-.61,1.74-1.84,1.74H243.6v1.63c0,5.22,3.37,7.88,8.79,7.88a25.1,25.1,0,0,0,13-3.68,1.46,1.46,0,0,1,2.36.4l5.32,7.06a1.73,1.73,0,0,1-.31,2.56,33.07,33.07,0,0,1-20.87,6.75c-13.3,0-24-7.06-24-21.28V83.69c0-15.23,10.74-21.78,23.73-21.78,12.58,0,22.81,6.34,22.81,21.78ZM251.47,74.9c-4.71,0-7.87,2.46-7.87,8.08v2.15h15.75V83C259.35,77.46,256.07,74.9,251.47,74.9Z"/><path class="cls-2" d="M283.31,116.64a1.68,1.68,0,0,1-1.84-1.85V68.25a2.14,2.14,0,0,1,1.33-2.15,59.66,59.66,0,0,1,21.48-4.19c15.56,0,24.35,8.39,24.35,23.73v29.15a1.67,1.67,0,0,1-1.84,1.85H314.72a1.67,1.67,0,0,1-1.84-1.85V85.64c0-7.47-3.17-9.82-8.6-9.82a26,26,0,0,0-7.16.92v38.05a1.65,1.65,0,0,1-1.74,1.85Z"/><path class="cls-2" d="M359.55,103.85c.92,0,2.15-.1,3.28-.21,1.33-.2,1.94.31,1.94,1.54v10a1.83,1.83,0,0,1-1.43,2,38,38,0,0,1-6.45.51c-11.86,0-19.84-6.44-19.84-19.54V52.29c0-1.12.61-1.74,1.84-1.74h10.64a1.62,1.62,0,0,1,1.84,1.64l1.23,12.28h9.21a1.64,1.64,0,0,1,1.84,1.73V76a1.64,1.64,0,0,1-1.84,1.74H352.7V96.28C352.7,101.29,355.05,103.85,359.55,103.85Z"/><path class="cls-2" d="M372.45,116.53a1.63,1.63,0,0,1-1.84-1.84V68.25a2.33,2.33,0,0,1,1.33-2.15,43,43,0,0,1,18.83-4.19,61,61,0,0,1,9.92,1,1.75,1.75,0,0,1,1.63,1.94v9.42a1.49,1.49,0,0,1-1.94,1.63,45.09,45.09,0,0,0-6.34-.41,20.84,20.84,0,0,0-7.78,1.33v37.85c0,1.23-.61,1.84-1.74,1.84Z"/><path class="cls-2" d="M451.24,93.52c0,1.12-.61,1.74-1.84,1.74H420.45v1.63c0,5.22,3.38,7.88,8.8,7.88a25.13,25.13,0,0,0,13-3.68,1.45,1.45,0,0,1,2.35.4l5.33,7.06a1.74,1.74,0,0,1-.31,2.56c-5.22,4-11.87,6.75-20.88,6.75-13.29,0-24-7.06-24-21.28V83.69c0-15.23,10.74-21.78,23.73-21.78,12.58,0,22.81,6.34,22.81,21.78ZM428.33,74.9c-4.71,0-7.88,2.46-7.88,8.08v2.15h15.76V83C436.21,77.46,432.93,74.9,428.33,74.9Z"/><path class="cls-2" d="M481.34,61.91c14.33,0,24.25,8.59,24.25,23.22V95.26c0,13.91-9.1,22.6-22.2,22.6a26.7,26.7,0,0,1-9.41-1.73v18c0,1.23-.61,1.84-1.74,1.84H460.17a1.63,1.63,0,0,1-1.84-1.84V67.74a1.82,1.82,0,0,1,1.33-1.95A66.76,66.76,0,0,1,481.34,61.91Zm8.4,33.65V84.82c0-6.34-3.17-9-8.7-9A21.51,21.51,0,0,0,474,76.94v25.58a14.34,14.34,0,0,0,7.16,1.74C486.67,104.26,489.74,101.49,489.74,95.56Z"/><path class="cls-2" d="M514.93,116.53a1.62,1.62,0,0,1-1.84-1.84V68.25a2.31,2.31,0,0,1,1.33-2.15,43,43,0,0,1,18.82-4.19,60.84,60.84,0,0,1,9.92,1,1.75,1.75,0,0,1,1.64,1.94v9.42a1.49,1.49,0,0,1-1.94,1.63,45.09,45.09,0,0,0-6.34-.41,20.8,20.8,0,0,0-7.78,1.33v37.85c0,1.23-.61,1.84-1.74,1.84Z"/><path class="cls-2" d="M593.72,93.52c0,1.12-.61,1.74-1.85,1.74H562.93v1.63c0,5.22,3.37,7.88,8.8,7.88a25.09,25.09,0,0,0,13-3.68,1.46,1.46,0,0,1,2.36.4l5.32,7.06a1.73,1.73,0,0,1-.31,2.56,33.07,33.07,0,0,1-20.87,6.75c-13.29,0-24-7.06-24-21.28V83.69c0-15.23,10.75-21.78,23.73-21.78,12.59,0,22.82,6.34,22.82,21.78ZM570.8,74.9c-4.71,0-7.87,2.46-7.87,8.08v2.15h15.75V83C578.68,77.46,575.41,74.9,570.8,74.9Z"/><path class="cls-2" d="M602.64,116.64a1.68,1.68,0,0,1-1.84-1.85V68.25a2.13,2.13,0,0,1,1.34-2.15,59.57,59.57,0,0,1,21.48-4.19c15.55,0,24.34,8.39,24.34,23.73v29.15a1.67,1.67,0,0,1-1.84,1.85H634.05a1.67,1.67,0,0,1-1.84-1.85V85.64c0-7.47-3.17-9.82-8.59-9.82a26.1,26.1,0,0,0-7.17.92v38.05a1.64,1.64,0,0,1-1.74,1.85Z"/><path class="cls-2" d="M686.66,45.23a1.6,1.6,0,0,1,1.74-1.84h12.07a1.63,1.63,0,0,1,1.84,1.84V112a2.08,2.08,0,0,1-1.43,2.15,68.78,68.78,0,0,1-21.58,3.68c-14.33,0-24.25-8.59-24.25-23.22V84.52c0-13.81,9-22.61,22.1-22.61a29.21,29.21,0,0,1,9.51,1.74Zm-7.06,58.82a21.38,21.38,0,0,0,7.06-1.12V77.25a15.42,15.42,0,0,0-7.16-1.74c-5.52,0-8.49,2.87-8.49,8.8V95C671,101.39,674.08,104.05,679.6,104.05Z"/><path class="cls-2" d="M713.28,116.53a1.63,1.63,0,0,1-1.84-1.84V68.25a2.32,2.32,0,0,1,1.34-2.15,43,43,0,0,1,18.82-4.19,60.84,60.84,0,0,1,9.92,1,1.74,1.74,0,0,1,1.63,1.94v9.42a1.49,1.49,0,0,1-1.94,1.63,45.09,45.09,0,0,0-6.34-.41,20.84,20.84,0,0,0-7.78,1.33v37.85c0,1.23-.6,1.84-1.74,1.84Z"/><path class="cls-2" d="M792.07,93.52c0,1.12-.61,1.74-1.84,1.74H761.29v1.63c0,5.22,3.37,7.88,8.79,7.88a25.1,25.1,0,0,0,13-3.68,1.45,1.45,0,0,1,2.35.4l5.33,7.06a1.73,1.73,0,0,1-.31,2.56,33.07,33.07,0,0,1-20.87,6.75c-13.3,0-24-7.06-24-21.28V83.69c0-15.23,10.74-21.78,23.73-21.78,12.58,0,22.81,6.34,22.81,21.78ZM769.16,74.9c-4.71,0-7.87,2.46-7.87,8.08v2.15H777V83C777,77.46,773.76,74.9,769.16,74.9Z"/><path class="cls-2" d="M274.38,175.37c0,1.13-.61,1.74-1.84,1.74H243.6v1.64c0,5.22,3.37,7.87,8.79,7.87a25.1,25.1,0,0,0,13-3.68,1.46,1.46,0,0,1,2.36.41l5.32,7.06a1.73,1.73,0,0,1-.31,2.56,33.07,33.07,0,0,1-20.87,6.75c-13.3,0-24-7.06-24-21.28V165.55c0-15.24,10.74-21.79,23.73-21.79,12.58,0,22.81,6.34,22.81,21.79Zm-22.91-18.62c-4.71,0-7.87,2.46-7.87,8.09V167h15.75v-2.14C259.35,159.31,256.07,156.75,251.47,156.75Z"/><path class="cls-2" d="M283.31,198.49a1.67,1.67,0,0,1-1.84-1.84V150.1A2.12,2.12,0,0,1,282.8,148a59.45,59.45,0,0,1,21.48-4.2c15.56,0,24.35,8.39,24.35,23.73v29.16a1.67,1.67,0,0,1-1.84,1.84H314.72a1.67,1.67,0,0,1-1.84-1.84V167.49c0-7.46-3.17-9.82-8.6-9.82a26,26,0,0,0-7.16.92v38.06a1.64,1.64,0,0,1-1.74,1.84Z"/><path class="cls-2" d="M356.58,199.72a37.58,37.58,0,0,1-21.27-6.65,1.68,1.68,0,0,1-.51-2.56l4.81-8.18c.72-1.12,1.43-1.33,2.45-.62a25.78,25.78,0,0,0,14.63,4.61c4.29,0,7.27-1.43,7.27-4.09s-3.28-3.59-7.38-4.3c-11.14-1.84-20.24-6.55-20.24-17.29,0-11.25,8.79-16.88,22.19-16.88a37.65,37.65,0,0,1,18.1,4.71,1.56,1.56,0,0,1,.62,2.45l-4.71,8a1.67,1.67,0,0,1-2.45.72,26.14,26.14,0,0,0-11.86-3c-4.4,0-6.55,1.23-6.55,3.79,0,2.86,2.35,3.68,8.89,4.7,10.65,1.84,19.14,6.24,19.14,16.68C379.71,193.79,371.22,199.72,356.58,199.72Z"/><path class="cls-2" d="M431.08,175.37c0,1.13-.6,1.74-1.84,1.74H400.3v1.64c0,5.22,3.37,7.87,8.79,7.87a25.1,25.1,0,0,0,13-3.68,1.46,1.46,0,0,1,2.36.41l5.32,7.06a1.73,1.73,0,0,1-.31,2.56,33.07,33.07,0,0,1-20.87,6.75c-13.3,0-24-7.06-24-21.28V165.55c0-15.24,10.74-21.79,23.74-21.79,12.57,0,22.8,6.34,22.8,21.79Zm-22.91-18.62c-4.71,0-7.87,2.46-7.87,8.09V167h15.75v-2.14C416.05,159.31,412.78,156.75,408.17,156.75Z"/><path class="cls-2" d="M488.8,143.86c13.51,0,22.81,8,22.81,22.41v30.28c0,1.23-.61,1.84-1.74,1.84H498a1.62,1.62,0,0,1-1.84-1.84V165.76c0-5-2.46-8-7.88-8a14.15,14.15,0,0,0-6.65,1.64,20,20,0,0,1,1,6.64v30.49c0,1.23-.62,1.84-1.74,1.84H469.06a1.62,1.62,0,0,1-1.84-1.84V165.76c0-5.32-2.46-8.09-7.47-8.09a21.47,21.47,0,0,0-6,.92v38a1.67,1.67,0,0,1-1.84,1.84H440a1.63,1.63,0,0,1-1.84-1.84V150.1a2.3,2.3,0,0,1,1.44-2.25,54.71,54.71,0,0,1,19.94-4,23.66,23.66,0,0,1,13.92,4.3C478.88,145.3,483.28,143.86,488.8,143.86Z"/><path class="cls-2" d="M545.52,143.76c13.09,0,22.09,8.8,22.09,22.61V176.5c0,14.63-9.92,23.22-24.24,23.22A69.18,69.18,0,0,1,521.78,196a2.11,2.11,0,0,1-1.43-2.15v-66.8a1.63,1.63,0,0,1,1.85-1.84h12.07c1.12,0,1.73.61,1.73,1.84V145.5A29.84,29.84,0,0,1,545.52,143.76Zm6.24,33V166.17c0-5.94-3.07-8.8-8.6-8.8a15.39,15.39,0,0,0-7.16,1.74v25.57a21.25,21.25,0,0,0,7.06,1.13C548.59,185.81,551.76,183.15,551.76,176.8Z"/><path class="cls-2" d="M593.84,199.72c-12.08,0-18.92-7.37-18.92-19.85V127.09a1.62,1.62,0,0,1,1.84-1.84h12.07c1.12,0,1.74.61,1.74,1.84v50.84c0,5.12,2,7.47,6,7.47a30.53,30.53,0,0,0,3.17-.11,1.6,1.6,0,0,1,1.94,1.75v10.22c0,.92-.41,1.74-1.12,1.85A38.81,38.81,0,0,1,593.84,199.72Z"/><path class="cls-2" d="M651.14,175.37c0,1.13-.61,1.74-1.84,1.74H620.35v1.64c0,5.22,3.38,7.87,8.8,7.87a25.09,25.09,0,0,0,13-3.68,1.46,1.46,0,0,1,2.36.41l5.32,7.06a1.73,1.73,0,0,1-.3,2.56,33.1,33.1,0,0,1-20.88,6.75c-13.29,0-24-7.06-24-21.28V165.55c0-15.24,10.75-21.79,23.73-21.79,12.59,0,22.82,6.34,22.82,21.79Zm-22.92-18.62c-4.7,0-7.87,2.46-7.87,8.09V167H636.1v-2.14C636.1,159.31,632.83,156.75,628.22,156.75Z"/><path class="cls-3" d="M177.56,196.7l-64.11,17.18a44,44,0,0,1-53.88-31.1L51.32,152a43.76,43.76,0,0,1,30.95-53.6l64.37-17.25A9.24,9.24,0,0,1,158,87.65h0a15.39,15.39,0,0,1-10.89,18.86L88.64,122.16A19.15,19.15,0,0,0,75.11,145.6l8.26,30.8a19.35,19.35,0,0,0,23.7,13.68l48-12.86c17.54-4.7,26.85-.08,29,8.12h0A9.28,9.28,0,0,1,177.56,196.7Z"/><path class="cls-4" d="M166.64,166.84l-64.37,17.24A9.23,9.23,0,0,1,91,177.55h0a15.4,15.4,0,0,1,10.89-18.85L160.27,143a19.13,19.13,0,0,0,13.53-23.43l-8.26-30.8a19.34,19.34,0,0,0-23.7-13.69L104.07,85.24c-17.7,4.74-26.85.08-29-8.11h0a9.28,9.28,0,0,1,6.56-11.37l53.88-14.43a44,44,0,0,1,53.87,31.1l8.25,30.8A43.77,43.77,0,0,1,166.64,166.84Z"/><path class="cls-5" d="M155.26,137.1,94.08,153.49A9.23,9.23,0,0,1,82.77,147v0a15.34,15.34,0,0,1,10.86-18.81l61.21-16.41a9.25,9.25,0,0,1,11.32,6.53h0A15.4,15.4,0,0,1,155.26,137.1Z"/></svg>